<?xml version="1.0" encoding="UTF-8"?>
<svg version="1.1" xmlns="http://www.w3.org/2000/svg" width="1024" height="1024">
<path d="M0 0 C337.92 0 675.84 0 1024 0 C1024 337.92 1024 675.84 1024 1024 C686.08 1024 348.16 1024 0 1024 C0 686.08 0 348.16 0 0 Z " fill="#000000" transform="translate(0,0)"/>
<path d="M0 0 C26.07 0 52.14 0 79 0 C79 39.93 79 79.86 79 121 C93.52 121 108.04 121 123 121 C122.96039433 107.22275887 122.96039433 107.22275887 122.90991211 93.44555664 C122.90699302 91.7254238 122.90444445 90.00529028 122.90234375 88.28515625 C122.89722778 87.38341675 122.89211182 86.48167725 122.88684082 85.5526123 C122.88653118 83.36808255 122.9375413 81.1836367 123 79 C124 78 124 78 127.78540039 77.88647461 C129.47282728 77.88672575 131.1602593 77.89228888 132.84765625 77.90234375 C134.02563782 77.90385437 134.02563782 77.90385437 135.22741699 77.90539551 C138.17245943 77.91064362 141.11748112 77.92460477 144.0625 77.9375 C150.641875 77.958125 157.22125 77.97875 164 78 C164 64.8 164 51.6 164 38 C175.88 38 187.76 38 200 38 C200 25.46 200 12.92 200 0 C216.5 0 233 0 250 0 C250 26.07 250 52.14 250 79 C238.12 79.33 226.24 79.66 214 80 C213.93941406 83.02027344 213.87882813 86.04054688 213.81640625 89.15234375 C213.7546683 92.06472408 213.69125932 94.97706353 213.62768555 97.8894043 C213.58426759 99.91964104 213.54259774 101.94991592 213.50268555 103.98022461 C213.44514854 106.89188151 213.38140722 109.80334514 213.31640625 112.71484375 C213.29969376 113.6283812 213.28298126 114.54191864 213.26576233 115.48313904 C213.11387171 121.88612829 213.11387171 121.88612829 212 123 C208.97043757 123.08870641 205.9631329 123.11526582 202.93359375 123.09765625 C202.1286145 123.09664917 201.32363525 123.09564209 200.4942627 123.09460449 C197.47532739 123.08935614 194.45641233 123.075395 191.4375 123.0625 C181.3209375 123.0315625 181.3209375 123.0315625 171 123 C171 140.82 171 158.64 171 177 C184.86 177 198.72 177 213 177 C213 190.53 213 204.06 213 218 C224.80263503 217.96039783 224.80263503 217.96039783 236.60522461 217.90991211 C238.07926359 217.90699291 239.55330337 217.90444436 241.02734375 217.90234375 C241.79953247 217.89722778 242.57172119 217.89211182 243.36730957 217.88684082 C245.24525187 217.88653026 247.12309253 217.93766431 249 218 C250 219 250 219 250.12304783 221.09083652 C250.12212604 222.01908206 250.12120424 222.94732759 250.12025452 223.90370178 C250.12231651 225.49603889 250.12231651 225.49603889 250.12442017 227.12054443 C250.12082489 228.29514221 250.11722961 229.46973999 250.11352539 230.67993164 C250.11367142 231.90902756 250.11381744 233.13812347 250.1139679 234.40446472 C250.11338892 237.78448672 250.10835964 241.16444829 250.10139394 244.54445958 C250.09515988 248.07321194 250.09455656 251.60196503 250.09336853 255.13072205 C250.09025537 261.81723119 250.08204218 268.50372406 250.07201904 275.19022602 C250.05877206 284.2226555 250.05335787 293.2550894 250.04751682 302.28752613 C250.03810228 316.52502962 250.01818327 330.76249876 250 345 C221.62 345 193.24 345 164 345 C164 302.76 164 260.52 164 217 C135.95 217 107.9 217 79 217 C79.01160156 226.15621094 79.02320313 235.31242188 79.03515625 244.74609375 C79.04026273 250.52929715 79.04511774 256.31249894 79.04882812 262.09570312 C79.05477114 271.28524328 79.06177287 280.47477429 79.07543945 289.66430664 C79.08538623 296.35577989 79.09185341 303.04724576 79.09408849 309.7387262 C79.09539561 313.28395601 79.09848153 316.82916468 79.10573006 320.37438774 C79.1137438 324.32568645 79.11399114 328.2769642 79.11352539 332.22827148 C79.11712067 333.41222 79.12071594 334.59616852 79.12442017 335.81599426 C79.1230455 336.88596649 79.12167084 337.95593872 79.12025452 339.05833435 C79.12117631 339.99395423 79.1220981 340.92957411 79.12304783 341.8935461 C79 344 79 344 78 345 C75.60190851 345.10027795 73.23260502 345.13618676 70.83398438 345.12939453 C70.08441971 345.13114685 69.33485504 345.13289917 68.56257629 345.13470459 C66.07294431 345.1391232 63.58338277 345.1361851 61.09375 345.1328125 C59.37121568 345.13348554 57.64868145 345.13445556 55.92614746 345.13571167 C52.31127012 345.13718865 48.69641745 345.13503407 45.08154297 345.13037109 C40.43733507 345.1246738 35.79318496 345.1279528 31.14897919 345.13394356 C27.59063274 345.13754916 24.0323001 345.13641059 20.47395325 345.13381577 C18.76105238 345.13314649 17.04815028 345.13397493 15.33525085 345.13629532 C12.94547178 345.13882183 10.55578759 345.1349813 8.16601562 345.12939453 C7.45117508 345.13141876 6.73633453 345.13344299 5.99983215 345.13552856 C1.11426269 345.11426269 1.11426269 345.11426269 0 344 C-0.09753148 342.17033073 -0.12371387 340.33684347 -0.12304783 338.50457668 C-0.12503888 337.30429756 -0.12702993 336.10401843 -0.12908131 334.86736721 C-0.12622772 333.51830301 -0.12328211 332.16923899 -0.12025452 330.82017517 C-0.12069009 329.40038059 -0.12156475 327.9805861 -0.12284368 326.56079203 C-0.12509131 322.64089982 -0.12106373 318.72103467 -0.11606562 314.80114591 C-0.11176512 310.58094682 -0.11320726 306.36074937 -0.1139679 302.14054871 C-0.11449339 294.82265292 -0.11134398 287.50476603 -0.10573006 280.18687248 C-0.09761844 269.60630105 -0.09500018 259.02573394 -0.09374207 248.44515974 C-0.09155101 231.28073882 -0.08488949 214.11632264 -0.07543945 196.9519043 C-0.06626671 180.27384464 -0.0591852 163.59578627 -0.05493164 146.91772461 C-0.05453756 145.37682898 -0.05453756 145.37682898 -0.05413551 143.80480414 C-0.05283051 138.65155427 -0.0515668 133.49830439 -0.05032361 128.34505451 C-0.03994933 85.56336546 -0.02151014 42.78168518 0 0 Z " fill="#FCFCFC" transform="translate(256,338)"/>
<path d="M0 0 C26.4 0 52.8 0 80 0 C80 39.93 80 79.86 80 121 C110.03 121 140.06 121 171 121 C171 81.07 171 41.14 171 0 C197.07 0 223.14 0 250 0 C250.04030303 42.59135094 250.04030303 42.59135094 250.04882812 60.38085938 C250.05477162 72.68481867 250.06177467 84.98877114 250.07543945 97.29272461 C250.08538483 106.2519195 250.09185308 115.21110887 250.09408849 124.17030913 C250.09539585 128.91720071 250.09848327 133.66407652 250.10573006 138.41096306 C250.11248797 142.87353026 250.11461743 147.33607509 250.11310768 151.79864693 C250.11338411 153.44142401 250.11539059 155.08420181 250.11920547 156.72697449 C250.12413916 158.95997371 250.12299951 161.19288709 250.12025452 163.42588806 C250.12163721 165.30496306 250.12163721 165.30496306 250.12304783 167.22199917 C250 170 250 170 249 171 C223.59 171 198.18 171 172 171 C172 228.42 172 285.84 172 345 C141.64 345 111.28 345 80 345 C80 287.58 80 230.16 80 171 C53.6 171 27.2 171 0 171 C0 114.57 0 58.14 0 0 Z " fill="#FBFBFB" transform="translate(518,338)"/>
<path d="M0 0 C16.5 0 33 0 50 0 C50 26.07 50 52.14 50 79 C38.12 79.33 26.24 79.66 14 80 C13.90912109 84.53041016 13.90912109 84.53041016 13.81640625 89.15234375 C13.7546683 92.06472408 13.69125932 94.97706353 13.62768555 97.8894043 C13.58426759 99.91964104 13.54259774 101.94991592 13.50268555 103.98022461 C13.44514854 106.89188151 13.38140722 109.80334514 13.31640625 112.71484375 C13.29133751 114.08514992 13.29133751 114.08514992 13.26576233 115.48313904 C13.11387171 121.88612829 13.11387171 121.88612829 12 123 C8.97043757 123.08870641 5.9631329 123.11526582 2.93359375 123.09765625 C2.1286145 123.09664917 1.32363525 123.09564209 0.4942627 123.09460449 C-2.52467261 123.08935614 -5.54358767 123.075395 -8.5625 123.0625 C-18.6790625 123.0315625 -18.6790625 123.0315625 -29 123 C-29 140.82 -29 158.64 -29 177 C-15.14 177 -1.28 177 13 177 C13 190.53 13 204.06 13 218 C24.80263503 217.96039783 24.80263503 217.96039783 36.60522461 217.90991211 C38.07926359 217.90699291 39.55330337 217.90444436 41.02734375 217.90234375 C41.79953247 217.89722778 42.57172119 217.89211182 43.36730957 217.88684082 C45.24525187 217.88653026 47.12309253 217.93766431 49 218 C50 219 50 219 50.12304783 221.09083652 C50.12212604 222.01908206 50.12120424 222.94732759 50.12025452 223.90370178 C50.12231651 225.49603889 50.12231651 225.49603889 50.12442017 227.12054443 C50.12082489 228.29514221 50.11722961 229.46973999 50.11352539 230.67993164 C50.11367142 231.90902756 50.11381744 233.13812347 50.1139679 234.40446472 C50.11338892 237.78448672 50.10835964 241.16444829 50.10139394 244.54445958 C50.09515988 248.07321194 50.09455656 251.60196503 50.09336853 255.13072205 C50.09025537 261.81723119 50.08204218 268.50372406 50.07201904 275.19022602 C50.05877206 284.2226555 50.05335787 293.2550894 50.04751682 302.28752613 C50.03810228 316.52502962 50.01818327 330.76249876 50 345 C21.62 345 -6.76 345 -36 345 C-36 302.76 -36 260.52 -36 217 C-35.67 217 -35.34 217 -35 217 C-35 258.91 -35 300.82 -35 344 C-7.28 344 20.44 344 49 344 C49 303.08 49 262.16 49 220 C36.79 220 24.58 220 12 220 C11 219 11 219 10.88647461 215.12280273 C10.88663379 213.39305833 10.89233151 211.66330919 10.90234375 209.93359375 C10.9037587 209.02497086 10.90517365 208.11634796 10.90663147 207.18019104 C10.91224807 204.26592779 10.92480335 201.35174019 10.9375 198.4375 C10.94251286 196.46679798 10.94707614 194.49609476 10.95117188 192.52539062 C10.96222289 187.68356441 10.97949862 182.84179505 11 178 C9.14483765 178.00785522 9.14483765 178.00785522 7.25219727 178.01586914 C2.68075275 178.03391561 -1.89068859 178.04543071 -6.4621582 178.05493164 C-8.44393441 178.05997267 -10.42570689 178.06680538 -12.4074707 178.07543945 C-15.24952109 178.08751515 -18.09152247 178.09323045 -20.93359375 178.09765625 C-22.27108925 178.10539818 -22.27108925 178.10539818 -23.63560486 178.11329651 C-25.75740601 178.11349177 -27.8791078 178.0621003 -30 178 C-31 177 -31 177 -31.12025452 174.75376892 C-31.11803391 173.76115555 -31.11581329 172.76854218 -31.11352539 171.74584961 C-31.11344986 170.62476303 -31.11337433 169.50367645 -31.11329651 168.34861755 C-31.10555458 166.51896202 -31.10555458 166.51896202 -31.09765625 164.65234375 C-31.0962413 163.41078018 -31.09482635 162.16921661 -31.09336853 160.89002991 C-31.08870591 157.58394509 -31.07971497 154.27792854 -31.06866455 150.97186279 C-31.05844827 147.60038861 -31.05381574 144.22890718 -31.04882812 140.85742188 C-31.03862279 134.23824261 -31.01905106 127.61918347 -31 121 C-17.14 121 -3.28 121 11 121 C10.92083267 107.59684348 10.92083267 107.59684348 10.81982422 94.19384766 C10.81398463 92.51725518 10.80888781 90.84065988 10.8046875 89.1640625 C10.79445557 88.28903076 10.78422363 87.41399902 10.77368164 86.51245117 C10.77305076 84.34032378 10.87661709 82.16862041 11 80 C11.66 79.34 12.32 78.68 13 78 C24.88 78 36.76 78 49 78 C49 52.59 49 27.18 49 1 C33.16 1 17.32 1 1 1 C1 13.21 1 25.42 1 38 C0.67 38 0.34 38 0 38 C0 25.46 0 12.92 0 0 Z " fill="#A7A7A7" transform="translate(456,338)"/>
<path d="M0 0 C5.94 0 11.88 0 18 0 C18 56.1 18 112.2 18 170 C-7.41 170 -32.82 170 -59 170 C-59 227.42 -59 284.84 -59 344 C-89.36 344 -119.72 344 -151 344 C-151 343.67 -151 343.34 -151 343 C-120.97 343 -90.94 343 -60 343 C-60.01160156 330.45097656 -60.02320313 317.90195312 -60.03515625 304.97265625 C-60.0402626 297.04752584 -60.04511759 289.12239661 -60.04882812 281.19726562 C-60.05477165 268.60359288 -60.06177479 256.00992681 -60.07543945 243.41625977 C-60.08538473 234.24611403 -60.09185305 225.07597368 -60.09408849 215.90582269 C-60.09539587 211.04714856 -60.09848339 206.18848984 -60.10573006 201.32982063 C-60.11248782 196.76219426 -60.11461746 192.19458974 -60.11310768 187.62695885 C-60.11338412 185.94548041 -60.11539069 184.26400129 -60.11920547 182.58252716 C-60.12413892 180.29697986 -60.1229996 178.01151642 -60.12025452 175.72596741 C-60.12117631 174.44375337 -60.1220981 173.16153933 -60.12304783 171.84047031 C-60 169 -60 169 -59 168 C-34.58 168 -10.16 168 15 168 C15 112.89 15 57.78 15 1 C10.05 1 5.1 1 0 1 C0 0.67 0 0.34 0 0 Z " fill="#D7D7D7" transform="translate(749,339)"/>
</svg>
